<svg width="1600" height="1200" viewBox="0 0 1600 1200" fill="none" xmlns="http://www.w3.org/2000/svg">
  <rect width="1600" height="1200" fill="url(#bg)"/>
  <circle cx="1220" cy="270" r="240" fill="url(#glowBlue)" opacity="0.72"/>
  <circle cx="260" cy="250" r="180" fill="url(#glowSoft)" opacity="0.64"/>
  <rect x="116" y="118" width="1368" height="964" rx="86" fill="url(#panel)"/>
  <rect x="182" y="188" width="1236" height="824" rx="64" fill="#FBFDFF" opacity="0.92"/>
  <rect x="250" y="274" width="460" height="562" rx="48" fill="url(#leftPane)"/>
  <circle cx="480" cy="446" r="126" fill="#FFFFFF" opacity="0.84"/>
  <path d="M370 596C386 506 454 442 540 442C626 442 694 506 710 596H370Z" fill="#7A70FF" opacity="0.84"/>
  <rect x="826" y="302" width="406" height="42" rx="21" fill="#96B7FF" opacity="0.78"/>
  <rect x="826" y="378" width="322" height="30" rx="15" fill="#CDD9FF" opacity="0.82"/>
  <rect x="826" y="440" width="268" height="26" rx="13" fill="#B1E7DA" opacity="0.92"/>
  <rect x="826" y="554" width="510" height="258" rx="42" fill="url(#card)"/>
  <rect x="878" y="612" width="232" height="22" rx="11" fill="#8BAFFF" opacity="0.8"/>
  <rect x="878" y="658" width="172" height="18" rx="9" fill="#C6D6FF" opacity="0.84"/>
  <rect x="1162" y="600" width="122" height="122" rx="30" fill="#ECF6FF"/>
  <circle cx="1223" cy="661" r="32" fill="#6E8EFF" opacity="0.8"/>
  <defs>
    <linearGradient id="bg" x1="68" y1="78" x2="1504" y2="1132" gradientUnits="userSpaceOnUse">
      <stop stop-color="#F6FAFF"/>
      <stop offset="0.46" stop-color="#EAF3FF"/>
      <stop offset="1" stop-color="#EDF9F4"/>
    </linearGradient>
    <radialGradient id="glowBlue" cx="0" cy="0" r="1" gradientUnits="userSpaceOnUse" gradientTransform="translate(1220 270) rotate(90) scale(240)">
      <stop stop-color="#8AB2FF"/>
      <stop offset="1" stop-color="#8AB2FF" stop-opacity="0"/>
    </radialGradient>
    <radialGradient id="glowSoft" cx="0" cy="0" r="1" gradientUnits="userSpaceOnUse" gradientTransform="translate(260 250) rotate(90) scale(180)">
      <stop stop-color="#C7B6FF"/>
      <stop offset="1" stop-color="#C7B6FF" stop-opacity="0"/>
    </radialGradient>
    <linearGradient id="panel" x1="116" y1="118" x2="1484" y2="1082" gradientUnits="userSpaceOnUse">
      <stop stop-color="#FFFFFF" stop-opacity="0.86"/>
      <stop offset="1" stop-color="#F7FAFF" stop-opacity="0.66"/>
    </linearGradient>
    <linearGradient id="leftPane" x1="250" y1="274" x2="710" y2="836" gradientUnits="userSpaceOnUse">
      <stop stop-color="#EAF2FF"/>
      <stop offset="1" stop-color="#E5F7F0"/>
    </linearGradient>
    <linearGradient id="card" x1="826" y1="554" x2="1336" y2="812" gradientUnits="userSpaceOnUse">
      <stop stop-color="#F4F8FF"/>
      <stop offset="1" stop-color="#F8FCFF"/>
    </linearGradient>
  </defs>
</svg>
